<svg width="557" height="398" viewBox="0 0 557 398" fill="none" xmlns="http://www.w3.org/2000/svg">
<path fill-rule="evenodd" clip-rule="evenodd" d="M0 19.2678L88.4441 36.0886L167.875 51.9C218.575 58.2919 328.99 69.8216 386.173 78.4768C508.417 96.9796 691.569 82.9077 756 58.2919L756 303.821L756 397.398H707.984C643.622 397.398 514.897 397.398 386.173 397.398C257.449 397.398 128.724 397.398 64.3622 397.398L0 397.398L0 19.2678Z" fill="url(#paint0_linear_59_21)" fill-opacity="0.4"/>
<path fill-rule="evenodd" clip-rule="evenodd" d="M0 147.819L167.847 128.289L322.739 113.474C461 99.6505 574 86.7436 623.5 62.3192C708.92 20.171 696.5 31.6112 757 0L757 325.53V398H708.92C644.473 398 515.578 398 386.684 398C257.789 398 128.895 398 64.4473 398L0 398L0 147.819Z" fill="url(#paint1_linear_59_21)" fill-opacity="0.4"/>
<path fill-rule="evenodd" clip-rule="evenodd" d="M0 147.819L167.847 128.289L322.739 113.474C461 99.6505 574 86.7436 623.5 62.3192C708.92 20.171 696.5 31.6112 757 0L757 325.53V398H708.92C644.473 398 515.578 398 386.684 398C257.789 398 128.895 398 64.4473 398L0 398L0 147.819Z" fill="url(#paint2_linear_59_21)"/>
<defs>
<linearGradient id="paint0_linear_59_21" x1="3.27644e-05" y1="271.157" x2="756.001" y2="271.157" gradientUnits="userSpaceOnUse">
<stop offset="0.0865385" stop-color="#FFFEF9"/>
<stop offset="1" stop-color="#C9E7FB"/>
</linearGradient>
<linearGradient id="paint1_linear_59_21" x1="-4.80079e-06" y1="375.16" x2="757" y2="375.16" gradientUnits="userSpaceOnUse">
<stop offset="0.427885" stop-color="#FFFEF9"/>
<stop offset="0.951923" stop-color="#E4F3FA"/>
<stop offset="1" stop-color="#C9E7FB"/>
</linearGradient>
<linearGradient id="paint2_linear_59_21" x1="378.5" y1="0" x2="378.5" y2="398" gradientUnits="userSpaceOnUse">
<stop stop-color="#D8EAFE"/>
<stop offset="0.932692" stop-color="white" stop-opacity="0.8"/>
</linearGradient>
</defs>
</svg>
