<svg width="101" height="57" viewBox="0 0 101 57" fill="none" xmlns="http://www.w3.org/2000/svg">
<path d="M25 0.5C38.4714 0.5 49.5 12.9725 49.5 28.5C49.5 44.0275 38.4714 56.5 25 56.5C11.5286 56.5 0.5 44.0275 0.5 28.5C0.5 12.9725 11.5286 0.5 25 0.5Z" fill="white" stroke="#6C81B4"/>
<path d="M22.2021 26.6221H24.3848C25.1562 26.6221 25.791 26.4902 26.2891 26.2266C26.7969 25.9531 27.1729 25.582 27.417 25.1133C27.6709 24.6348 27.7979 24.083 27.7979 23.458C27.7979 22.8428 27.6855 22.3105 27.4609 21.8613C27.2363 21.4023 26.8945 21.0508 26.4355 20.8066C25.9863 20.5527 25.4102 20.4258 24.707 20.4258C24.1406 20.4258 23.6182 20.5381 23.1396 20.7627C22.6709 20.9873 22.2949 21.3096 22.0117 21.7295C21.7383 22.1396 21.6016 22.6328 21.6016 23.209H17.7197C17.7197 22.0566 18.0225 21.0459 18.6279 20.1768C19.2432 19.2979 20.0732 18.6094 21.1182 18.1113C22.1631 17.6133 23.3301 17.3643 24.6191 17.3643C26.0254 17.3643 27.2559 17.5986 28.3105 18.0674C29.375 18.5264 30.2002 19.2051 30.7861 20.1035C31.3818 21.002 31.6797 22.1152 31.6797 23.4434C31.6797 24.0781 31.5283 24.7129 31.2256 25.3477C30.9326 25.9727 30.498 26.5391 29.9219 27.0469C29.3555 27.5449 28.6572 27.9502 27.8271 28.2627C27.0068 28.5654 26.0645 28.7168 25 28.7168H22.2021V26.6221ZM22.2021 29.6104V27.5449H25C26.2012 27.5449 27.2412 27.6865 28.1201 27.9697C29.0088 28.2432 29.7412 28.6338 30.3174 29.1416C30.8936 29.6396 31.3184 30.2207 31.5918 30.8848C31.875 31.5488 32.0166 32.2617 32.0166 33.0234C32.0166 34.0195 31.8311 34.9082 31.46 35.6895C31.0889 36.4609 30.5664 37.1152 29.8926 37.6523C29.2285 38.1895 28.4473 38.5996 27.5488 38.8828C26.6504 39.1562 25.6787 39.293 24.6338 39.293C23.7256 39.293 22.8418 39.1709 21.9824 38.9268C21.1328 38.6729 20.3662 38.2969 19.6826 37.7988C18.999 37.291 18.457 36.6562 18.0566 35.8945C17.6562 35.123 17.4561 34.2295 17.4561 33.2139H21.3379C21.3379 33.7998 21.4795 34.3223 21.7627 34.7812C22.0557 35.2402 22.4561 35.6016 22.9639 35.8652C23.4814 36.1191 24.0625 36.2461 24.707 36.2461C25.4199 36.2461 26.0303 36.1191 26.5381 35.8652C27.0557 35.6016 27.4512 35.2305 27.7246 34.752C27.998 34.2637 28.1348 33.6826 28.1348 33.0088C28.1348 32.208 27.9834 31.5586 27.6807 31.0605C27.3779 30.5625 26.9434 30.1963 26.377 29.9619C25.8203 29.7275 25.1562 29.6104 24.3848 29.6104H22.2021Z" fill="#6C81B4"/>
<line x1="50" y1="28.5" x2="101" y2="28.5" stroke="#6C81B4"/>
</svg>
