<svg width="101" height="57" viewBox="0 0 101 57" fill="none" xmlns="http://www.w3.org/2000/svg">
<path d="M76 0.5C62.5286 0.5 51.5 12.9725 51.5 28.5C51.5 44.0275 62.5286 56.5 76 56.5C89.4714 56.5 100.5 44.0275 100.5 28.5C100.5 12.9725 89.4714 0.5 76 0.5Z" fill="white" stroke="#6C81B4"/>
<path d="M84.4121 35.9531V39H69.9688V36.3926L76.8975 28.9072C77.6201 28.0869 78.1914 27.374 78.6113 26.7686C79.0312 26.1631 79.3291 25.6162 79.5049 25.1279C79.6904 24.6299 79.7832 24.1562 79.7832 23.707C79.7832 23.0527 79.666 22.4814 79.4316 21.9932C79.1973 21.4951 78.8555 21.1094 78.4062 20.8359C77.9668 20.5625 77.4248 20.4258 76.7803 20.4258C76.0674 20.4258 75.457 20.5918 74.9492 20.9238C74.4512 21.2461 74.0703 21.6953 73.8066 22.2715C73.5527 22.8477 73.4258 23.5068 73.4258 24.249H69.5439C69.5439 22.9893 69.8369 21.8418 70.4229 20.8066C71.0088 19.7617 71.8486 18.9268 72.9424 18.3018C74.0361 17.6768 75.335 17.3643 76.8389 17.3643C78.3037 17.3643 79.5439 17.6084 80.5596 18.0967C81.5752 18.5752 82.3467 19.2588 82.874 20.1475C83.4014 21.0361 83.665 22.0957 83.665 23.3262C83.665 24.0098 83.5527 24.6836 83.3281 25.3477C83.1035 26.0117 82.7861 26.6709 82.376 27.3252C81.9756 27.9697 81.4971 28.624 80.9404 29.2881C80.3838 29.9521 79.7637 30.6309 79.0801 31.3242L74.9199 35.9531H84.4121Z" fill="#6C81B4"/>
<line y1="-0.5" x2="51" y2="-0.5" transform="matrix(-1 0 0 1 51 29)" stroke="#6C81B4"/>
</svg>
