<svg width="1510" height="411" viewBox="0 0 1510 411" fill="none" xmlns="http://www.w3.org/2000/svg">
<path fill-rule="evenodd" clip-rule="evenodd" d="M0 189.55L7.55 226.459C16.3583 263.367 32.7167 337.183 49.075 307.657C65.4333 278.13 81.7917 145.26 96.8917 115.734C113.25 86.2072 129.608 160.024 145.967 211.695C162.325 263.367 178.683 292.893 195.042 270.749C211.4 248.604 227.758 174.787 244.117 123.115C259.217 71.4439 275.575 41.9173 291.933 56.6806C308.292 71.4439 324.65 130.497 341.008 130.497C357.367 130.497 373.725 71.4439 390.083 78.8255C406.442 86.2072 421.542 160.024 437.9 196.932C454.258 233.84 470.617 233.84 486.975 255.985C503.333 278.13 519.692 322.42 536.05 344.565C552.408 366.71 568.767 366.71 585.125 351.947C600.225 337.183 616.583 307.657 632.942 292.893C649.3 278.13 665.658 278.13 682.017 248.604C698.375 219.077 714.733 160.024 731.092 160.024C747.45 160.024 762.55 219.077 778.908 219.077C795.267 219.077 811.625 160.024 827.983 145.26C844.342 130.497 860.7 160.024 877.058 204.314C893.417 248.604 909.775 307.657 924.875 292.893C941.233 278.13 957.592 189.55 973.95 189.55C990.308 189.55 1006.67 278.13 1023.02 263.367C1039.38 248.604 1055.74 130.497 1072.1 64.0622C1088.46 -2.37267 1103.56 -17.136 1119.92 19.7723C1136.28 56.6806 1152.63 145.26 1168.99 204.314C1185.35 263.367 1201.71 292.893 1218.07 263.367C1234.43 233.84 1250.78 145.26 1265.88 137.879C1282.24 130.497 1298.6 204.314 1314.96 233.84C1331.32 263.367 1347.68 248.604 1364.03 233.84C1380.39 219.077 1396.75 204.314 1413.11 167.405C1428.21 130.497 1444.57 71.4439 1460.93 56.6806C1477.28 41.9173 1493.64 71.4439 1502.45 86.2072L1510 100.97V411H1502.45C1493.64 411 1477.28 411 1460.93 411C1444.57 411 1428.21 411 1413.11 411C1396.75 411 1380.39 411 1364.03 411C1347.68 411 1331.32 411 1314.96 411C1298.6 411 1282.24 411 1265.88 411C1250.78 411 1234.43 411 1218.07 411C1201.71 411 1185.35 411 1168.99 411C1152.63 411 1136.28 411 1119.92 411C1103.56 411 1088.46 411 1072.1 411C1055.74 411 1039.38 411 1023.02 411C1006.67 411 990.308 411 973.95 411C957.592 411 941.233 411 924.875 411C909.775 411 893.417 411 877.058 411C860.7 411 844.342 411 827.983 411C811.625 411 795.267 411 778.908 411C762.55 411 747.45 411 731.092 411C714.733 411 698.375 411 682.017 411C665.658 411 649.3 411 632.942 411C616.583 411 600.225 411 585.125 411C568.767 411 552.408 411 536.05 411C519.692 411 503.333 411 486.975 411C470.617 411 454.258 411 437.9 411C421.542 411 406.442 411 390.083 411C373.725 411 357.367 411 341.008 411C324.65 411 308.292 411 291.933 411C275.575 411 259.217 411 244.117 411C227.758 411 211.4 411 195.042 411C178.683 411 162.325 411 145.967 411C129.608 411 113.25 411 96.8917 411C81.7917 411 65.4333 411 49.075 411C32.7167 411 16.3583 411 7.55 411H0V189.55Z" fill="#495374"/>
</svg>
